<?xml version="1.0" standalone="no"?>
<!DOCTYPE svg PUBLIC "-//W3C//DTD SVG 20010904//EN"
 "http://www.w3.org/TR/2001/REC-SVG-20010904/DTD/svg10.dtd">
<svg version="1.0" xmlns="http://www.w3.org/2000/svg"
 width="128.000000pt" height="128.000000pt" viewBox="0 0 128.000000 128.000000"
 preserveAspectRatio="xMidYMid meet">
<metadata>
Created by potrace 1.11, written by Peter Selinger 2001-2013
</metadata>
<g transform="translate(0.000000,128.000000) scale(0.100000,-0.100000)"
fill="#000000" stroke="none">
<path d="M0 640 l0 -640 640 0 640 0 0 640 0 640 -640 0 -640 0 0 -640z m425
29 c8 -23 -1 -39 -21 -39 -23 0 -11 -25 14 -28 25 -4 30 -22 6 -22 -8 0 -25 5
-36 11 -16 9 -23 8 -29 -2 -7 -12 -9 -11 -10 1 -3 38 5 66 24 86 23 24 43 22
52 -7z m350 21 c3 -6 -4 -10 -18 -10 -18 0 -28 -9 -42 -39 -9 -22 -14 -44 -11
-50 4 -6 2 -11 -5 -11 -8 0 -10 13 -6 45 6 40 5 45 -13 45 -38 0 -20 19 23 23
23 2 47 4 54 5 6 1 15 -2 18 -8z m79 -22 c25 -48 20 -65 -19 -78 -44 -15 -65
-8 -65 22 0 17 53 88 66 88 1 0 10 -14 18 -32z m-724 2 c0 -11 4 -20 9 -20 4
0 20 9 34 20 14 11 28 20 31 20 8 0 8 -64 0 -84 -10 -26 -27 -18 -20 9 7 29 6
29 -29 13 -20 -9 -28 -9 -37 0 -10 10 -16 5 -29 -19 -24 -47 -32 -12 -9 39 20
44 50 57 50 22z m181 -14 c8 -18 13 -41 9 -50 -6 -17 -21 -23 -19 -8 1 15 -46
18 -58 3 -21 -29 -24 -3 -4 37 18 35 31 48 51 51 3 1 13 -14 21 -33z m197 18
c12 -8 22 -24 22 -34 0 -22 -36 -50 -63 -50 -15 0 -18 5 -13 23 3 12 6 34 6
50 0 31 15 34 48 11z m121 -10 c2 -10 7 -22 13 -25 5 -3 5 -17 -2 -33 -5 -15
-15 -24 -20 -21 -6 4 -8 10 -5 15 2 4 -6 10 -20 12 -18 4 -26 0 -30 -14 -4
-10 -11 -16 -16 -13 -5 4 -2 22 6 43 25 59 65 79 74 36z m311 -11 c1 -36 2
-37 15 -19 8 11 15 28 15 38 0 10 5 18 11 18 16 0 2 -71 -17 -90 -14 -13 -17
-13 -29 3 -13 18 -14 18 -23 0 -7 -12 -14 -15 -21 -8 -12 12 22 95 39 95 5 0
10 -17 10 -37z m112 -1 c-4 -42 15 -41 26 0 11 44 34 50 26 6 -9 -42 -22 -68
-36 -68 -6 0 -17 8 -24 18 -12 16 -13 16 -19 0 -9 -22 -25 -24 -25 -3 0 24 33
86 44 82 6 -2 10 -18 8 -35z m148 28 c-8 -5 -23 -10 -32 -10 -10 0 -18 -4 -18
-10 0 -5 9 -10 20 -10 11 0 20 -4 20 -10 0 -5 -11 -10 -25 -10 -16 0 -25 -6
-25 -16 0 -12 7 -14 30 -9 17 4 30 2 30 -3 0 -12 -58 -24 -72 -16 -13 8 -1 86
15 96 7 4 26 8 42 8 23 0 27 -3 15 -10z"/>
<path d="M385 659 c-4 -6 -5 -13 -2 -16 7 -7 27 6 27 18 0 12 -17 12 -25 -2z"/>
<path d="M796 638 c-21 -30 -6 -46 29 -30 17 8 25 19 23 29 -5 27 -34 27 -52
1z"/>
<path d="M266 645 c-3 -9 0 -15 9 -15 8 0 15 7 15 15 0 8 -4 15 -9 15 -5 0
-11 -7 -15 -15z"/>
<path d="M470 640 c0 -33 7 -37 35 -16 16 12 17 16 6 30 -22 26 -41 19 -41
-14z"/>
<path d="M590 645 c-10 -12 -10 -15 4 -15 9 0 16 7 16 15 0 8 -2 15 -4 15 -2
0 -9 -7 -16 -15z"/>
</g>
</svg>
